<?xml version="1.0" encoding="UTF-8"?>
<svg width="1200" height="300" viewBox="0 0 1200 300" xmlns="http://www.w3.org/2000/svg">
  <defs>
    <linearGradient id="bg" x1="0%" y1="0%" x2="100%" y2="0%">
      <stop offset="0%" stop-color="#2E1065"/>
      <stop offset="35%" stop-color="#4C1D95"/>
      <stop offset="100%" stop-color="#150A30"/>
    </linearGradient>
    <linearGradient id="accent" x1="0%" y1="0%" x2="0%" y2="100%">
      <stop offset="0%" stop-color="#A78BFA"/>
      <stop offset="100%" stop-color="#6D28D9"/>
    </linearGradient>
  </defs>
  <rect width="1200" height="300" rx="20" fill="url(#bg)"/>
  <!-- Left accent bar -->
  <rect x="0" y="0" width="8" height="300" fill="url(#accent)"/>
  <!-- Chat bubble icon left -->
  <path d="M 50 80 Q 50 60 70 60 L 182 60 Q 202 60 202 80 L 202 138 Q 202 158 182 158 L 120 158 L 96 180 L 100 158 L 70 158 Q 50 158 50 138 Z" fill="white" opacity="0.85"/>
  <circle cx="96" cy="108" r="10" fill="#6D28D9"/>
  <circle cx="126" cy="108" r="10" fill="#6D28D9"/>
  <circle cx="156" cy="108" r="10" fill="#6D28D9"/>
  <!-- Small reply bubble -->
  <path d="M 100 168 Q 100 152 115 152 L 196 152 Q 211 152 211 168 L 211 198 Q 211 214 196 214 L 140 214 L 128 226 L 130 214 L 115 214 Q 100 214 100 198 Z" fill="rgba(255,255,255,0.45)"/>
  <polyline points="118,183 128,193 178,170" fill="none" stroke="white" stroke-width="6" stroke-linecap="round" stroke-linejoin="round"/>
  <!-- App name -->
  <text x="245" y="115" font-family="'Arial Black', Arial, sans-serif" font-size="68" font-weight="900" fill="white" letter-spacing="2">CHATTRACK</text>
  <!-- Subtitle line -->
  <line x1="245" y1="135" x2="800" y2="135" stroke="rgba(167,139,250,0.6)" stroke-width="2"/>
  <!-- Category tag -->
  <rect x="245" y="148" width="190" height="28" rx="14" fill="rgba(167,139,250,0.2)" stroke="rgba(167,139,250,0.5)" stroke-width="1"/>
  <text x="340" y="167" text-anchor="middle" font-family="Meiryo, Yu Gothic, MS PGothic, Arial, sans-serif" font-size="14" fill="#A78BFA" font-weight="600" letter-spacing="1">AI / チャット / 情報管理</text>
  <!-- Description -->
  <text x="245" y="210" font-family="Meiryo, Yu Gothic, MS PGothic, Arial, sans-serif" font-size="22" fill="rgba(255,255,255,0.85)">AIチャット型情報管理システム</text>
  <text x="245" y="242" font-family="Meiryo, Yu Gothic, MS PGothic, Arial, sans-serif" font-size="16" fill="rgba(255,255,255,0.55)">AIとの会話だけであらゆる業務情報を即座に記録・構造化・チーム共有</text>
  <!-- Right decorative -->
  <circle cx="1050" cy="150" r="150" fill="none" stroke="rgba(167,139,250,0.06)" stroke-width="2"/>
  <circle cx="1050" cy="150" r="100" fill="none" stroke="rgba(167,139,250,0.08)" stroke-width="2"/>
  <circle cx="1050" cy="150" r="55" fill="rgba(167,139,250,0.06)"/>
  <!-- Floating dots -->
  <circle cx="980" cy="90" r="6" fill="rgba(167,139,250,0.3)"/>
  <circle cx="1100" cy="80" r="4" fill="rgba(167,139,250,0.25)"/>
  <circle cx="1130" cy="200" r="8" fill="rgba(167,139,250,0.2)"/>
  <circle cx="960" cy="220" r="5" fill="rgba(167,139,250,0.2)"/>
</svg>
