<?xml version="1.0" encoding="UTF-8"?>
<svg width="512" height="512" viewBox="0 0 512 512" xmlns="http://www.w3.org/2000/svg">
  <defs>
    <linearGradient id="grad" x1="0%" y1="0%" x2="100%" y2="100%">
      <stop offset="0%" stop-color="#4C1D95"/>
      <stop offset="100%" stop-color="#7C3AED"/>
    </linearGradient>
    <filter id="shadow">
      <feDropShadow dx="0" dy="4" stdDeviation="8" flood-color="rgba(0,0,0,0.3)"/>
    </filter>
  </defs>
  <rect width="512" height="512" rx="96" fill="url(#grad)"/>
  <!-- Main chat bubble -->
  <path d="M 118 148 Q 118 120 145 120 L 340 120 Q 367 120 367 148 L 367 248 Q 367 276 340 276 L 220 276 L 175 310 L 180 276 L 145 276 Q 118 276 118 248 Z" fill="white" filter="url(#shadow)"/>
  <!-- Message dots inside bubble -->
  <circle cx="178" cy="198" r="16" fill="#7C3AED"/>
  <circle cx="229" cy="198" r="16" fill="#7C3AED"/>
  <circle cx="280" cy="198" r="16" fill="#7C3AED"/>
  <!-- Small reply bubble -->
  <path d="M 200 300 Q 200 278 218 278 L 355 278 Q 373 278 373 300 L 373 348 Q 373 368 355 368 L 260 368 L 240 385 L 243 368 L 218 368 Q 200 368 200 348 Z" fill="rgba(255,255,255,0.55)"/>
  <!-- Check mark in small bubble -->
  <polyline points="225,325 242,342 295,300" fill="none" stroke="white" stroke-width="10" stroke-linecap="round" stroke-linejoin="round"/>
  <!-- App name -->
  <text x="256" y="418" text-anchor="middle" font-family="'Arial Black', Arial, sans-serif" font-size="42" font-weight="900" fill="white" letter-spacing="1">CHATTRACK</text>
  <text x="256" y="452" text-anchor="middle" font-family="Arial, sans-serif" font-size="22" fill="rgba(255,255,255,0.78)" letter-spacing="1">AI情報管理</text>
</svg>
