<?xml version="1.0" encoding="UTF-8"?>
<svg width="1200" height="300" viewBox="0 0 1200 300" xmlns="http://www.w3.org/2000/svg">
  <defs>
    <linearGradient id="bg" x1="0%" y1="0%" x2="100%" y2="0%">
      <stop offset="0%" stop-color="#022C22"/>
      <stop offset="35%" stop-color="#064E3B"/>
      <stop offset="100%" stop-color="#011810"/>
    </linearGradient>
    <linearGradient id="accent" x1="0%" y1="0%" x2="0%" y2="100%">
      <stop offset="0%" stop-color="#6EE7B7"/>
      <stop offset="100%" stop-color="#059669"/>
    </linearGradient>
  </defs>
  <rect width="1200" height="300" rx="20" fill="url(#bg)"/>
  <!-- Left accent bar -->
  <rect x="0" y="0" width="8" height="300" fill="url(#accent)"/>
  <!-- Document icon left -->
  <path d="M 55 48 L 180 48 L 210 78 L 210 252 Q 210 264 198 264 L 55 264 Q 43 264 43 252 L 43 60 Q 43 48 55 48 Z" fill="white" opacity="0.88"/>
  <path d="M 180 48 L 180 78 L 210 78 Z" fill="#A7F3D0"/>
  <!-- Checklist items -->
  <!-- Item 1 checked -->
  <rect x="58" y="104" width="18" height="18" rx="3" fill="#059669"/>
  <polyline points="62,112 67,118 92,106" fill="none" stroke="white" stroke-width="3.5" stroke-linecap="round" stroke-linejoin="round"/>
  <rect x="84" y="107" width="96" height="10" rx="3" fill="#D1FAE5"/>
  <!-- Item 2 checked -->
  <rect x="58" y="132" width="18" height="18" rx="3" fill="#059669"/>
  <polyline points="62,140 67,146 92,134" fill="none" stroke="white" stroke-width="3.5" stroke-linecap="round" stroke-linejoin="round"/>
  <rect x="84" y="135" width="78" height="10" rx="3" fill="#D1FAE5"/>
  <!-- Item 3 pending -->
  <rect x="58" y="160" width="18" height="18" rx="3" fill="none" stroke="#059669" stroke-width="2"/>
  <rect x="84" y="163" width="108" height="10" rx="3" fill="#ECFDF5"/>
  <!-- Item 4 pending -->
  <rect x="58" y="188" width="18" height="18" rx="3" fill="none" stroke="#A7F3D0" stroke-width="2"/>
  <rect x="84" y="191" width="88" height="10" rx="3" fill="rgba(167,243,208,0.25)"/>
  <!-- Digital circle top-right of doc -->
  <circle cx="192" cy="74" r="10" fill="#10B981"/>
  <circle cx="192" cy="74" r="5" fill="white"/>
  <!-- App name -->
  <text x="248" y="115" font-family="'Arial Black', Arial, sans-serif" font-size="62" font-weight="900" fill="white" letter-spacing="1">XC-GATE</text>
  <!-- Subtitle line -->
  <line x1="248" y1="135" x2="800" y2="135" stroke="rgba(110,231,183,0.6)" stroke-width="2"/>
  <!-- Category tag -->
  <rect x="248" y="148" width="220" height="28" rx="14" fill="rgba(110,231,183,0.15)" stroke="rgba(110,231,183,0.45)" stroke-width="1"/>
  <text x="358" y="167" text-anchor="middle" font-family="Meiryo, Yu Gothic, MS PGothic, Arial, sans-serif" font-size="14" fill="#6EE7B7" font-weight="600" letter-spacing="1">ペーパーレス / 帳票 / DX</text>
  <!-- Description -->
  <text x="248" y="210" font-family="Meiryo, Yu Gothic, MS PGothic, Arial, sans-serif" font-size="22" fill="rgba(255,255,255,0.85)">現場帳票ペーパーレス化ソリューション</text>
  <text x="248" y="242" font-family="Meiryo, Yu Gothic, MS PGothic, Arial, sans-serif" font-size="16" fill="rgba(255,255,255,0.55)">手書き帳票をゼロにし現場データをリアルタイムで経営に活かす</text>
  <!-- Right decorative -->
  <text x="950" y="120" font-family="Meiryo, Yu Gothic, MS PGothic, Arial, sans-serif" font-size="13" fill="rgba(110,231,183,0.4)" font-weight="600">✓ 帳票デジタル化</text>
  <text x="950" y="150" font-family="Meiryo, Yu Gothic, MS PGothic, Arial, sans-serif" font-size="13" fill="rgba(110,231,183,0.35)" font-weight="600">✓ リアルタイム集計</text>
  <text x="950" y="180" font-family="Meiryo, Yu Gothic, MS PGothic, Arial, sans-serif" font-size="13" fill="rgba(110,231,183,0.3)" font-weight="600">✓ システム連携</text>
  <text x="950" y="210" font-family="Meiryo, Yu Gothic, MS PGothic, Arial, sans-serif" font-size="13" fill="rgba(110,231,183,0.25)" font-weight="600">✓ ペーパーコスト削減</text>
  <rect x="930" y="90" width="230" height="150" rx="10" fill="none" stroke="rgba(110,231,183,0.1)" stroke-width="1.5"/>
</svg>
