<?xml version="1.0" encoding="UTF-8"?>
<svg width="1200" height="300" viewBox="0 0 1200 300" xmlns="http://www.w3.org/2000/svg">
  <defs>
    <linearGradient id="bg" x1="0%" y1="0%" x2="100%" y2="0%">
      <stop offset="0%" stop-color="#7C2D12"/>
      <stop offset="35%" stop-color="#C2410C"/>
      <stop offset="100%" stop-color="#1C1917"/>
    </linearGradient>
    <linearGradient id="accent" x1="0%" y1="0%" x2="0%" y2="100%">
      <stop offset="0%" stop-color="#F59E0B"/>
      <stop offset="100%" stop-color="#C2410C"/>
    </linearGradient>
    <clipPath id="clip"><rect width="1200" height="300" rx="20"/></clipPath>
  </defs>
  <rect width="1200" height="300" rx="20" fill="url(#bg)"/>
  <!-- Decorative circuit-like lines background -->
  <line x1="0" y1="80" x2="400" y2="80" stroke="rgba(245,158,11,0.1)" stroke-width="1"/>
  <line x1="0" y1="160" x2="350" y2="160" stroke="rgba(245,158,11,0.1)" stroke-width="1"/>
  <line x1="0" y1="220" x2="380" y2="220" stroke="rgba(245,158,11,0.1)" stroke-width="1"/>
  <!-- Left accent bar -->
  <rect x="0" y="0" width="8" height="300" rx="0" fill="url(#accent)"/>
  <!-- Icon area (left) -->
  <!-- Cloud icon -->
  <path d="M 68 118 Q 65 94 82 90 Q 84 68 104 65 Q 113 50 126 56 Q 140 47 154 60 Q 177 60 177 88 Q 193 94 188 118 Z" fill="white" opacity="0.9"/>
  <line x1="86" y1="138" x2="146" y2="138" stroke="white" stroke-width="9" stroke-linecap="round" opacity="0.9"/>
  <polyline points="136,129 156,138 136,147" fill="none" stroke="white" stroke-width="7" stroke-linecap="round" stroke-linejoin="round" opacity="0.9"/>
  <line x1="92" y1="158" x2="142" y2="158" stroke="white" stroke-width="6" stroke-linecap="round" opacity="0.6"/>
  <line x1="98" y1="175" x2="136" y2="175" stroke="white" stroke-width="4" stroke-linecap="round" opacity="0.4"/>
  <!-- App name -->
  <text x="230" y="115" font-family="'Arial Black', Arial, sans-serif" font-size="72" font-weight="900" fill="white" letter-spacing="3">ANCIENT</text>
  <!-- Subtitle line -->
  <line x1="230" y1="135" x2="700" y2="135" stroke="rgba(245,158,11,0.6)" stroke-width="2"/>
  <!-- Category tag -->
  <rect x="230" y="148" width="140" height="28" rx="14" fill="rgba(245,158,11,0.25)" stroke="rgba(245,158,11,0.5)" stroke-width="1"/>
  <text x="300" y="167" text-anchor="middle" font-family="Meiryo, Yu Gothic, MS PGothic, Arial, sans-serif" font-size="14" fill="#F59E0B" font-weight="600" letter-spacing="1">AWS / クラウド</text>
  <!-- Description -->
  <text x="230" y="210" font-family="Meiryo, Yu Gothic, MS PGothic, Arial, sans-serif" font-size="22" fill="rgba(255,255,255,0.85)">製造業向け画像解析アプリ</text>
  <text x="230" y="242" font-family="Meiryo, Yu Gothic, MS PGothic, Arial, sans-serif" font-size="16" fill="rgba(255,255,255,0.55)">製造現場の画像からグラフ・テーブルを自動解析しデータを即座に抽出</text>
  <!-- Right decorative element -->
  <circle cx="1060" cy="150" r="180" fill="none" stroke="rgba(245,158,11,0.06)" stroke-width="1"/>
  <circle cx="1060" cy="150" r="130" fill="none" stroke="rgba(245,158,11,0.08)" stroke-width="1"/>
  <circle cx="1060" cy="150" r="80" fill="none" stroke="rgba(245,158,11,0.1)" stroke-width="1"/>
  <circle cx="1060" cy="150" r="40" fill="rgba(245,158,11,0.08)"/>
</svg>
