<?xml version="1.0" encoding="UTF-8"?>
<svg width="512" height="512" viewBox="0 0 512 512" xmlns="http://www.w3.org/2000/svg">
  <defs>
    <linearGradient id="grad" x1="0%" y1="0%" x2="100%" y2="100%">
      <stop offset="0%" stop-color="#1E3A8A"/>
      <stop offset="100%" stop-color="#0EA5E9"/>
    </linearGradient>
    <filter id="shadow">
      <feDropShadow dx="0" dy="4" stdDeviation="8" flood-color="rgba(0,0,0,0.25)"/>
    </filter>
  </defs>
  <rect width="512" height="512" rx="96" fill="url(#grad)"/>
  <!-- Blueprint grid lines -->
  <line x1="130" y1="150" x2="382" y2="150" stroke="rgba(255,255,255,0.18)" stroke-width="1.5"/>
  <line x1="130" y1="190" x2="382" y2="190" stroke="rgba(255,255,255,0.18)" stroke-width="1.5"/>
  <line x1="130" y1="230" x2="382" y2="230" stroke="rgba(255,255,255,0.18)" stroke-width="1.5"/>
  <line x1="130" y1="270" x2="382" y2="270" stroke="rgba(255,255,255,0.18)" stroke-width="1.5"/>
  <line x1="130" y1="310" x2="382" y2="310" stroke="rgba(255,255,255,0.18)" stroke-width="1.5"/>
  <line x1="160" y1="130" x2="160" y2="340" stroke="rgba(255,255,255,0.18)" stroke-width="1.5"/>
  <line x1="210" y1="130" x2="210" y2="340" stroke="rgba(255,255,255,0.18)" stroke-width="1.5"/>
  <line x1="260" y1="130" x2="260" y2="340" stroke="rgba(255,255,255,0.18)" stroke-width="1.5"/>
  <line x1="310" y1="130" x2="310" y2="340" stroke="rgba(255,255,255,0.18)" stroke-width="1.5"/>
  <line x1="360" y1="130" x2="360" y2="340" stroke="rgba(255,255,255,0.18)" stroke-width="1.5"/>
  <!-- CAD document border -->
  <rect x="138" y="138" width="236" height="196" rx="6" fill="none" stroke="white" stroke-width="8" filter="url(#shadow)"/>
  <!-- Compass symbol -->
  <circle cx="256" cy="236" r="56" fill="none" stroke="white" stroke-width="8"/>
  <line x1="256" y1="180" x2="256" y2="292" stroke="white" stroke-width="8" stroke-linecap="round"/>
  <line x1="200" y1="236" x2="312" y2="236" stroke="white" stroke-width="8" stroke-linecap="round"/>
  <circle cx="256" cy="236" r="14" fill="white"/>
  <!-- Compass needle -->
  <polygon points="256,185 248,220 256,210 264,220" fill="white"/>
  <!-- App name -->
  <text x="256" y="418" text-anchor="middle" font-family="'Arial Black', Arial, sans-serif" font-size="60" font-weight="900" fill="white" letter-spacing="3">AXIS</text>
  <text x="256" y="452" text-anchor="middle" font-family="Arial, sans-serif" font-size="22" fill="rgba(255,255,255,0.78)" letter-spacing="1">CAD図面管理</text>
</svg>
