<?xml version="1.0" encoding="UTF-8"?>
<svg width="512" height="512" viewBox="0 0 512 512" xmlns="http://www.w3.org/2000/svg">
  <defs>
    <linearGradient id="bg" x1="0%" y1="0%" x2="100%" y2="100%">
      <stop offset="0%" stop-color="#0F1F45"/>
      <stop offset="100%" stop-color="#0B1120"/>
    </linearGradient>
    <linearGradient id="g1" x1="0%" y1="0%" x2="100%" y2="100%">
      <stop offset="0%" stop-color="#60A5FA"/>
      <stop offset="100%" stop-color="#3B82F6"/>
    </linearGradient>
    <linearGradient id="g2" x1="0%" y1="0%" x2="100%" y2="100%">
      <stop offset="0%" stop-color="#818CF8"/>
      <stop offset="100%" stop-color="#6366F1"/>
    </linearGradient>
  </defs>

  <!-- Background -->
  <rect width="512" height="512" rx="96" fill="url(#bg)"/>

  <!-- 3x3 Grid -->
  <!-- Row 1 -->
  <rect x="88"  y="88"  width="96" height="96" rx="18" fill="url(#g1)" opacity="1"/>
  <rect x="208" y="88"  width="96" height="96" rx="18" fill="url(#g2)" opacity="0.75"/>
  <rect x="328" y="88"  width="96" height="96" rx="18" fill="url(#g1)" opacity="0.45"/>
  <!-- Row 2 -->
  <rect x="88"  y="208" width="96" height="96" rx="18" fill="url(#g2)" opacity="0.75"/>
  <rect x="208" y="208" width="96" height="96" rx="18" fill="url(#g1)" opacity="1"/>
  <rect x="328" y="208" width="96" height="96" rx="18" fill="url(#g2)" opacity="0.75"/>
  <!-- Row 3 -->
  <rect x="88"  y="328" width="96" height="96" rx="18" fill="url(#g1)" opacity="0.45"/>
  <rect x="208" y="328" width="96" height="96" rx="18" fill="url(#g2)" opacity="0.75"/>
  <rect x="328" y="328" width="96" height="96" rx="18" fill="url(#g1)" opacity="1"/>
</svg>
