<?xml version="1.0" encoding="UTF-8"?>
<svg width="1200" height="300" viewBox="0 0 1200 300" xmlns="http://www.w3.org/2000/svg">
  <defs>
    <linearGradient id="bg" x1="0%" y1="0%" x2="100%" y2="0%">
      <stop offset="0%" stop-color="#042F2E"/>
      <stop offset="35%" stop-color="#134E4A"/>
      <stop offset="100%" stop-color="#021717"/>
    </linearGradient>
    <linearGradient id="accent" x1="0%" y1="0%" x2="0%" y2="100%">
      <stop offset="0%" stop-color="#2DD4BF"/>
      <stop offset="100%" stop-color="#0D9488"/>
    </linearGradient>
  </defs>
  <rect width="1200" height="300" rx="20" fill="url(#bg)"/>
  <!-- Left accent bar -->
  <rect x="0" y="0" width="8" height="300" fill="url(#accent)"/>
  <!-- PCB chip icon left -->
  <rect x="68" y="78" width="148" height="148" rx="10" fill="none" stroke="white" stroke-width="5" opacity="0.85"/>
  <rect x="98" y="108" width="88" height="88" rx="6" fill="white" opacity="0.88"/>
  <rect x="110" y="120" width="64" height="64" rx="4" fill="#134E4A"/>
  <!-- Chip pins -->
  <line x1="68" y1="110" x2="98" y2="110" stroke="white" stroke-width="6" stroke-linecap="round" opacity="0.7"/>
  <line x1="68" y1="140" x2="98" y2="140" stroke="white" stroke-width="6" stroke-linecap="round" opacity="0.7"/>
  <line x1="68" y1="170" x2="98" y2="170" stroke="white" stroke-width="6" stroke-linecap="round" opacity="0.7"/>
  <line x1="68" y1="200" x2="98" y2="200" stroke="white" stroke-width="6" stroke-linecap="round" opacity="0.7"/>
  <line x1="186" y1="110" x2="216" y2="110" stroke="white" stroke-width="6" stroke-linecap="round" opacity="0.7"/>
  <line x1="186" y1="140" x2="216" y2="140" stroke="white" stroke-width="6" stroke-linecap="round" opacity="0.7"/>
  <line x1="186" y1="170" x2="216" y2="170" stroke="white" stroke-width="6" stroke-linecap="round" opacity="0.7"/>
  <line x1="186" y1="200" x2="216" y2="200" stroke="white" stroke-width="6" stroke-linecap="round" opacity="0.7"/>
  <line x1="110" y1="78" x2="110" y2="108" stroke="white" stroke-width="6" stroke-linecap="round" opacity="0.7"/>
  <line x1="142" y1="78" x2="142" y2="108" stroke="white" stroke-width="6" stroke-linecap="round" opacity="0.7"/>
  <line x1="174" y1="78" x2="174" y2="108" stroke="white" stroke-width="6" stroke-linecap="round" opacity="0.7"/>
  <line x1="110" y1="196" x2="110" y2="226" stroke="white" stroke-width="6" stroke-linecap="round" opacity="0.7"/>
  <line x1="142" y1="196" x2="142" y2="226" stroke="white" stroke-width="6" stroke-linecap="round" opacity="0.7"/>
  <line x1="174" y1="196" x2="174" y2="226" stroke="white" stroke-width="6" stroke-linecap="round" opacity="0.7"/>
  <!-- App name -->
  <text x="255" y="115" font-family="'Arial Black', Arial, sans-serif" font-size="72" font-weight="900" fill="white" letter-spacing="4">SMT</text>
  <!-- Subtitle line -->
  <line x1="255" y1="135" x2="700" y2="135" stroke="rgba(45,212,191,0.6)" stroke-width="2"/>
  <!-- Category tag -->
  <rect x="255" y="148" width="230" height="28" rx="14" fill="rgba(45,212,191,0.15)" stroke="rgba(45,212,191,0.45)" stroke-width="1"/>
  <text x="370" y="167" text-anchor="middle" font-family="Meiryo, Yu Gothic, MS PGothic, Arial, sans-serif" font-size="14" fill="#2DD4BF" font-weight="600" letter-spacing="1">品質管理 / トレーサビリティ</text>
  <!-- Description -->
  <text x="255" y="210" font-family="Meiryo, Yu Gothic, MS PGothic, Arial, sans-serif" font-size="22" fill="rgba(255,255,255,0.85)">SMTトレーサビリティデータ生成システム</text>
  <text x="255" y="242" font-family="Meiryo, Yu Gothic, MS PGothic, Arial, sans-serif" font-size="16" fill="rgba(255,255,255,0.55)">部品実装履歴を全自動追跡し品質問題発生時の影響範囲を即座に特定</text>
  <!-- Right decorative: circuit traces -->
  <polyline points="900,150 950,150 950,100 1050,100 1050,150 1150,150" fill="none" stroke="rgba(45,212,191,0.2)" stroke-width="3"/>
  <polyline points="920,180 920,200 1020,200 1020,170 1120,170 1120,200" fill="none" stroke="rgba(45,212,191,0.15)" stroke-width="2.5"/>
  <circle cx="950" cy="150" r="6" fill="rgba(45,212,191,0.4)"/>
  <circle cx="1050" cy="100" r="6" fill="rgba(45,212,191,0.4)"/>
  <circle cx="1050" cy="150" r="6" fill="rgba(45,212,191,0.4)"/>
  <circle cx="1020" cy="200" r="5" fill="rgba(45,212,191,0.35)"/>
  <circle cx="1120" cy="170" r="5" fill="rgba(45,212,191,0.35)"/>
</svg>
