<?xml version="1.0" encoding="UTF-8"?>
<svg width="512" height="512" viewBox="0 0 512 512" xmlns="http://www.w3.org/2000/svg">
  <defs>
    <linearGradient id="grad" x1="0%" y1="0%" x2="100%" y2="100%">
      <stop offset="0%" stop-color="#92400E"/>
      <stop offset="100%" stop-color="#F59E0B"/>
    </linearGradient>
    <filter id="shadow">
      <feDropShadow dx="0" dy="4" stdDeviation="8" flood-color="rgba(0,0,0,0.3)"/>
    </filter>
  </defs>
  <rect width="512" height="512" rx="96" fill="url(#grad)"/>
  <!-- Gauge arc background -->
  <path d="M 100 292 A 156 156 0 1 1 412 292" fill="none" stroke="rgba(255,255,255,0.18)" stroke-width="32" stroke-linecap="round"/>
  <!-- Gauge arc fill (showing ~75% speed) -->
  <path d="M 100 292 A 156 156 0 1 1 356 168" fill="none" stroke="white" stroke-width="32" stroke-linecap="round" filter="url(#shadow)"/>
  <!-- Tick marks -->
  <line x1="100" y1="292" x2="124" y2="292" stroke="rgba(255,255,255,0.6)" stroke-width="6" stroke-linecap="round"/>
  <line x1="118" y1="196" x2="137" y2="212" stroke="rgba(255,255,255,0.6)" stroke-width="6" stroke-linecap="round"/>
  <line x1="196" y1="138" x2="204" y2="160" stroke="rgba(255,255,255,0.6)" stroke-width="6" stroke-linecap="round"/>
  <line x1="256" y1="118" x2="256" y2="140" stroke="rgba(255,255,255,0.6)" stroke-width="6" stroke-linecap="round"/>
  <line x1="316" y1="138" x2="308" y2="160" stroke="rgba(255,255,255,0.6)" stroke-width="6" stroke-linecap="round"/>
  <line x1="394" y1="196" x2="375" y2="212" stroke="rgba(255,255,255,0.6)" stroke-width="6" stroke-linecap="round"/>
  <line x1="412" y1="292" x2="388" y2="292" stroke="rgba(255,255,255,0.6)" stroke-width="6" stroke-linecap="round"/>
  <!-- Needle -->
  <line x1="256" y1="292" x2="330" y2="168" stroke="white" stroke-width="10" stroke-linecap="round"/>
  <!-- Center cap -->
  <circle cx="256" cy="292" r="22" fill="white"/>
  <circle cx="256" cy="292" r="12" fill="#F59E0B"/>
  <!-- App name -->
  <text x="256" y="418" text-anchor="middle" font-family="'Arial Black', Arial, sans-serif" font-size="55" font-weight="900" fill="white" letter-spacing="2">QUICK</text>
  <text x="256" y="452" text-anchor="middle" font-family="Arial, sans-serif" font-size="22" fill="rgba(255,255,255,0.78)" letter-spacing="1">生産管理</text>
</svg>
